:SAMPLES-PER-SECOND 30
:FULLY-SPECIFIED
:DEGREES
98
root  34.73822826 36.49856087 -14.9273955 8.495619774 -8.665239334 4.104962826
lowerback  -6.962659359 -2.18975997 -1.453839779
upperback  -4.250780106 -2.398200035 -3.318089962
thorax  -0.5667899847 -1.029819965 -2.75680995
lowerneck  2.44095993 -19.03359985 -13.40130043
upperneck  2.997530222 -26.2444973 13.43169975
head  4.0104599 -13.02560043 4.517920017
lclavicle  0 -4.497500157e-015 -2.743230041e-014
lhumerus  -49.87960052 26.8491993 63.81829834
lradius  5.228657756e-007 -6.507048965e-006 31.15129852
lwrist  4.824992743e-007 -3.790274832e-007 -26.58889961
lhand  -4.421331342e-031 -36.9980011 -10.61380005
lfingers  90 7.125020027 -90
lthumb  94.84887814 -25.44722039 101.1682619
rclavicle  0 -4.497500157e-015 -2.743230041e-014
rhumerus  -35.98199844 -32.2737999 -6.606247902
rradius  -5.16745672e-007 2.214343908e-008 103.1299973
rwrist  -0.0001064338358 0.02779268846 -176.878006
rhand  -1.770404001e-031 4.238279819 -6.695139885
rfingers  -90 -7.125020027 -90
rthumb  -84.68448373 -9.24609588 -59.92666512
rfemur  -13.44757652 17.26513672 12.14614582
rtibia  -1.585262895 -2.010499239 21.62920952
rfoot  0.2547209859 -23.54179192 -34.24860382
rtoes  4.174742371 19.57690822 -102.2893462
lfemur  -8.432255745 -16.47422791 -21.08060646
ltibia  2.386616707 -2.287120104 15.38427734
lfoot  1.180308104 -21.31664467 39.18305588
ltoes  -8.468054107 -18.18570479 -115.5026884
99
root  34.7454041 36.49832057 -14.92477477 8.522558212 -8.724936485 4.122298241
lowerback  -6.953609467 -2.171960115 -1.431399941
upperback  -4.257740021 -2.373490095 -3.361700058
thorax  -0.5810239911 -1.017310023 -2.812599897
lowerneck  2.637140036 -19.05500031 -13.34319973
upperneck  2.782529831 -26.27250099 13.43089962
head  3.910510063 -13.05130005 4.539919853
lclavicle  0 -4.497500157e-015 -2.743230041e-014
lhumerus  -49.86470032 27.03560066 63.5890007
lradius  5.228657756e-007 -6.507048965e-006 30.9491024
lwrist  4.824992743e-007 -3.790274832e-007 -26.89090157
lhand  -0 -37.04859924 -10.65470028
lfingers  90 7.125020027 -90
lthumb  94.88130163 -25.48556652 101.2260135
rclavicle  0 -4.497500157e-015 -2.743230041e-014
rhumerus  -35.07929993 -32.71609879 -5.912308693
rradius  -5.16745672e-007 2.214343908e-008 102.2480011
rwrist  -0.0001064338358 0.02788446844 -176.9219971
rhand  -1.770559926e-031 4.305830002 -6.661159992
rfingers  -90 -7.125020027 -90
rthumb  -84.6509503 -9.279388127 -59.85798257
rfemur  -13.49068356 17.25881004 12.09459305
rtibia  -1.582064509 -2.028441429 21.62612343
rfoot  0.2575070858 -23.55348587 -34.20127106
rtoes  4.164597786 19.57898771 -102.2590719
lfemur  -8.469804764 -16.42135048 -21.10284424
ltibia  2.385234356 -2.30232358 15.39161491
lfoot  1.191720009 -21.29772758 39.20062637
ltoes  -8.454794545 -18.19170826 -115.4602099
100
root  34.7514145 36.49930278 -14.92198283 8.554158211 -8.788849831 4.120623112
lowerback  -6.934710026 -2.168689966 -1.429509997
upperback  -4.2428298 -2.369729996 -3.389669895
thorax  -0.5772770047 -1.015930057 -2.841969967
lowerneck  2.657140017 -19.07439995 -13.40369987
upperneck  2.757289648 -26.30649948 13.51970005
head  3.924259901 -13.06770039 4.56746006
lclavicle  0 -4.497500157e-015 -2.743230041e-014
lhumerus  -49.84619904 27.13369942 63.49119949
lradius  5.228657756e-007 -6.507048965e-006 30.85140038
lwrist  4.824992743e-007 -3.790274832e-007 -27.06310081
lhand  -4.424510343e-031 -37.05260086 -10.66870022
lfingers  90 7.125020027 -90
lthumb  94.88621767 -25.49916291 101.2316364
rclavicle  0 -4.497500157e-015 -2.743230041e-014
rhumerus  -34.04309845 -33.09330368 -5.392098904
rradius  -5.16745672e-007 2.214343908e-008 101.2799988
rwrist  -0.0001064338358 0.02797632478 -176.6600037
rhand  -1.770450897e-031 4.258709908 -6.59758997
rfingers  -90 -7.125020027 -90
rthumb  -84.63000122 -9.331673117 -59.89870954
rfemur  -13.53143215 17.24497032 12.06288433
rtibia  -1.570858359 -2.035517931 21.62928581
rfoot  0.2768261135 -23.55090332 -34.12968826
rtoes  4.195169672 19.57270478 -102.3503164
lfemur  -8.485692978 -16.34001923 -21.10496712
ltibia  2.39036727 -2.27159071 15.37068558
lfoot  1.215040445 -21.35595512 39.24637604
ltoes  -8.496603157 -18.17273913 -115.5941945
101
root  34.75623544 36.50126119 -14.9183018 8.557160378 -8.823319435 4.145001888
lowerback  -6.923850536 -2.172060013 -1.402549982
upperback  -4.234729767 -2.376739979 -3.399840117
thorax  -0.5768139958 -1.02046001 -2.867799997
lowerneck  2.693799973 -19.09639931 -13.45740032
upperneck  2.665009975 -26.33839989 13.57579994
head  3.90921998 -13.08619976 4.591289997
lclavicle  0 -4.497500157e-015 -2.743230041e-014
lhumerus  -49.83580017 27.19020081 63.48160172
lradius  5.228657756e-007 -6.507048965e-006 30.83980179
lwrist  4.824992743e-007 -3.790274832e-007 -27.10099983
lhand  -0 -37.03239822 -10.66709995
lfingers  90 7.125020027 -90
lthumb  94.87641191 -25.49836945 101.2098786
rclavicle  0 -4.497500157e-015 -2.743230041e-014
rhumerus  -33.04410172 -33.55799866 -4.806928635
rradius  -5.16745672e-007 2.214343908e-008 100.3600006
rwrist  -0.0001064338358 0.02806825563 -176.647995
rhand  -1.770610053e-031 4.327320099 -6.290150166
rfingers  -90 -7.125020027 -90
rthumb  -84.45665499 -9.60138075 -59.80588321
rfemur  -13.54486275 17.23555183 12.01947212
rtibia  -1.568524122 -2.073697329 21.64651108
rfoot  0.2706304193 -23.62916565 -34.0814476
rtoes  4.193254943 19.5730997 -102.3446009
lfemur  -8.463335991 -16.35787773 -21.16040802
ltibia  2.411122799 -2.303162813 15.32219791
lfoot  1.185344338 -21.2729454 39.23351288
ltoes  -8.447187085 -18.19514739 -115.4358446
102
root  34.76069293 36.50707335 -14.91573664 8.555117607 -8.869597435 4.155592918
lowerback  -6.928752899 -2.169260025 -1.382790208
upperback  -4.228149891 -2.372989893 -3.42685008
thorax  -0.5705670118 -1.018959999 -2.906840086
lowerneck  2.712739944 -19.11330032 -13.45149994
upperneck  2.602119923 -26.35969734 13.5951004
head  3.891799927 -13.09799957 4.598060131
lclavicle  0 -4.497500157e-015 -2.743230041e-014
lhumerus  -49.81750107 27.16200066 63.49909973
lradius  5.228657756e-007 -6.507048965e-006 30.83459854
lwrist  4.824992743e-007 -3.790274832e-007 -27.12630081
lhand  -4.421191834e-031 -36.99560165 -10.65089989
lfingers  90 7.125020027 -90
lthumb  94.8556777 -25.48372326 101.1690269
rclavicle  0 -4.497500157e-015 -2.743230041e-014
rhumerus  -31.95929718 -33.8082962 -4.386051655
rradius  -5.16745672e-007 2.214343908e-008 99.35070038
rwrist  -0.0001064338358 0.02816027403 -176.173996
rhand  -0 4.159510136 -6.280340195
rfingers  -90 -7.125020027 -90
rthumb  -84.4931427 -9.600629119 -59.96919122
rfemur  -13.53658485 17.26457596 11.99947643
rtibia  -1.559364438 -2.06905961 21.64263725
rfoot  0.2895719111 -23.62080193 -34.03414536
rtoes  4.165945556 19.57871174 -102.2630938
lfemur  -8.425279617 -16.42014313 -21.20061302
ltibia  2.433115482 -2.332660437 15.27489853
lfoot  1.188391089 -21.19246674 39.32227707
ltoes  -8.460709945 -18.18903141 -115.4791589
103
root  34.76584427 36.50894766 -14.91212469 8.552113533 -8.926635742 4.160352707
lowerback  -6.933380127 -2.158740044 -1.37658
upperback  -4.226270199 -2.35739994 -3.455120087
thorax  -0.5656679869 -1.010969996 -2.938960075
lowerneck  2.684400082 -19.13820076 -13.46269989
upperneck  2.64309001 -26.39469719 13.57750034
head  3.911999941 -13.11369991 4.584829807
lclavicle  0 -4.497500157e-015 -2.743230041e-014
lhumerus  -49.81600189 26.7112999 63.83340073
lradius  5.228657756e-007 -6.507048965e-006 31.11090088
lwrist  4.824992743e-007 -3.790274832e-007 -26.69059944
lhand  -4.422221343e-031 -37.01330185 -10.68669987
lfingers  90 7.125020027 -90
lthumb  94.87164137 -25.51828474 101.1911885
rclavicle  0 -4.497500157e-015 -2.743230041e-014
rhumerus  -31.07490158 -34.19260406 -3.808338642
rradius  -5.16745672e-007 2.214343908e-008 98.37190247
rwrist  -0.0001064338358 0.02825238556 -176.3119965
rhand  -0 4.011980057 -6.147079945
rfingers  -90 -7.125020027 -90
rthumb  -84.46208221 -9.708098384 -60.10224362
rfemur  -13.5231781 17.27971649 11.97453499
rtibia  -1.546628356 -2.095158339 21.61602592
rfoot  0.309564203 -23.67036438 -33.9799118
rtoes  4.170663246 19.57774502 -102.2771725
lfemur  -8.414385796 -16.41106796 -21.22337151
ltibia  2.433892012 -2.352527142 15.26988888
lfoot  1.181480646 -21.15603638 39.33211899
ltoes  -8.470198361 -18.18473285 -115.509559
